<?xml version="1.0" encoding="UTF-8"?> <svg xmlns="http://www.w3.org/2000/svg" width="161" height="28" viewBox="0 0 161 28" fill="none"><path d="M0 27.2584V0.48999H15.1685C20.5046 0.48999 22.9966 3.94354 22.9966 7.31584C22.9966 10.6881 20.9516 12.8957 18.419 13.4577C21.2698 13.8979 23.518 16.6269 23.518 19.9992C23.518 23.8929 20.9109 27.2652 15.6493 27.2652H0V27.2584ZM15.9744 8.59568C15.9744 7.30906 15.0128 6.51001 13.6043 6.51001H6.90034V10.6814H13.6043C15.006 10.6814 15.9744 9.91616 15.9744 8.59568ZM16.4958 18.9496C16.4958 17.6223 15.5342 16.7014 13.8481 16.7014H6.90711V21.2384H13.8481C15.4936 21.2384 16.4958 20.3919 16.4958 18.9496Z" fill="#1c3a42"></path><path d="M28.2176 27.2584V0.48999H47.8419V6.51001H35.1179V10.6814H47.5575V16.7014H35.1179V21.2384H47.8419V27.2584H28.2176Z" fill="#1c3a42"></path><path d="M71.6781 27.2584L60.3627 11.7648V27.2584H53.4623V0.48999H60.5658L71.4005 15.2184V0.48999H78.3415V27.2584H71.6781Z" fill="#1c3a42"></path><path d="M95.1691 11.8529C95.9682 10.3361 97.1803 9.06976 98.6701 8.20298C100.173 7.33621 101.887 6.88251 103.634 6.90959C105.428 6.90959 106.992 7.29558 108.32 8.06078C109.647 8.82598 110.629 9.78756 111.279 10.9523V7.24141H114.719V27.5564H111.272V23.7711C110.602 24.9561 109.593 25.938 108.259 26.7167C106.925 27.4955 105.367 27.8815 103.6 27.8815C101.86 27.9018 100.146 27.4413 98.6633 26.5474C97.1735 25.64 95.9682 24.3467 95.1827 22.8095C94.3294 21.2046 93.9096 19.3762 93.9096 17.3244C93.9096 15.2455 94.3294 13.4239 95.1827 11.8529H95.1691ZM110.338 13.3495C109.762 12.2592 108.882 11.3518 107.812 10.7356C106.749 10.1465 105.543 9.82819 104.324 9.82819C103.099 9.82819 101.9 10.1329 100.83 10.7153C99.7603 11.3247 98.8936 12.2254 98.318 13.3088C97.695 14.4465 97.3835 15.7805 97.3835 17.3041C97.3835 18.8277 97.695 20.2159 98.318 21.3603C98.8868 22.4506 99.7603 23.3648 100.83 23.9945C101.887 24.604 103.092 24.9155 104.311 24.9019C105.537 24.9155 106.749 24.5972 107.812 23.9945C108.889 23.3715 109.769 22.4574 110.338 21.3603C110.961 20.2092 111.272 18.8684 111.272 17.338C111.272 15.8076 110.961 14.4736 110.338 13.3427V13.3495Z" fill="#1c3a42"></path><path d="M126.976 8.06085C128.323 7.29565 129.86 6.90967 131.58 6.90967C133.429 6.90967 135.088 7.34305 136.564 8.20306C138.047 9.0766 139.253 10.3429 140.045 11.853C140.891 13.424 141.318 15.2456 141.318 17.3177C141.318 19.3899 140.891 21.1979 140.045 22.8028C139.253 24.3467 138.041 25.6469 136.544 26.5407C135.048 27.4414 133.321 27.9019 131.574 27.8748C129.799 27.8748 128.242 27.4888 126.908 26.7236C125.574 25.9584 124.565 24.9833 123.895 23.7982V27.5362H120.488V0.117676H123.901V11.0133C124.599 9.80117 125.628 8.81928 126.976 8.05408V8.06085ZM136.903 13.3224C136.327 12.239 135.454 11.3383 134.377 10.7289C133.307 10.133 132.102 9.82826 130.876 9.8418C129.664 9.83503 128.465 10.1465 127.409 10.7424C126.326 11.3654 125.445 12.2796 124.863 13.3766C124.226 14.5278 123.908 15.855 123.908 17.3584C123.908 18.8617 124.226 20.2295 124.863 21.3807C125.445 22.4777 126.326 23.3919 127.409 24.0149C128.472 24.6108 129.671 24.9223 130.89 24.9223C132.109 24.9223 133.307 24.6108 134.37 24.0149C135.447 23.3919 136.327 22.4777 136.896 21.3807C137.519 20.2295 137.837 18.8752 137.831 17.3245C137.831 15.7941 137.519 14.4601 136.889 13.3292L136.903 13.3224Z" fill="#1c3a42"></path><path d="M148.841 27.0894C147.595 26.5612 146.607 25.8163 145.882 24.8683C145.158 23.9202 144.738 22.7758 144.684 21.584H148.205C148.306 22.5998 148.787 23.4259 149.647 24.0692C150.507 24.7125 151.638 25.0308 153.033 25.0308C154.333 25.0308 155.356 24.7464 156.107 24.1776C156.859 23.6087 157.232 22.8909 157.232 22.0242C157.232 21.1371 156.832 20.4734 156.033 20.0401C155.234 19.6067 153.995 19.1801 152.322 18.7602C151.049 18.4487 149.803 18.0424 148.591 17.5549C147.629 17.1486 146.783 16.5256 146.112 15.74C145.429 14.9342 145.083 13.8778 145.083 12.5709C145.083 11.5416 145.408 10.5462 146.018 9.71326C146.641 8.84648 147.528 8.16254 148.679 7.65467C149.83 7.14679 151.137 6.89624 152.606 6.89624C154.875 6.89624 156.71 7.46506 158.112 8.6027C159.514 9.74034 160.258 11.2978 160.36 13.2752H156.954C156.879 12.212 156.446 11.3588 155.661 10.7155C154.875 10.0722 153.819 9.75389 152.498 9.75389C151.272 9.75389 150.297 10.0112 149.573 10.5259C148.848 11.0405 148.489 11.7244 148.489 12.5641C148.476 12.8689 148.53 13.1736 148.645 13.458C148.76 13.7424 148.929 13.9997 149.139 14.2164C149.613 14.6701 150.175 15.029 150.792 15.2593C151.692 15.5978 152.613 15.889 153.548 16.1328C154.767 16.4443 155.972 16.8303 157.144 17.2908C158.064 17.67 158.877 18.2591 159.52 19.0108C160.184 19.776 160.523 20.7782 160.55 22.0106C160.563 23.0805 160.238 24.1302 159.615 25.0105C158.992 25.8976 158.112 26.6018 156.974 27.1029C155.837 27.6108 154.536 27.8613 153.067 27.8546C151.496 27.8613 150.087 27.5972 148.841 27.0691V27.0894Z" fill="#1c3a42"></path><path d="M90.9098 24.2248H88.7632C88.4923 24.2248 88.235 24.1165 88.0454 23.9269C87.8557 23.7373 87.7474 23.48 87.7474 23.2159V0.117676H84.3412V24.1842C84.3412 25.0781 84.7001 25.9381 85.3367 26.5678C85.98 27.1976 86.8468 27.5565 87.7474 27.5565H90.9098V24.2248Z" fill="#1c3a42"></path></svg> 