<svg width="825" height="125" viewBox="0 0 825 125" fill="none" xmlns="http://www.w3.org/2000/svg">
<mask id="mask0_1_2" style="mask-type:luminance" maskUnits="userSpaceOnUse" x="0" y="0" width="120" height="120">
<path d="M0 120L120 120L120 0L0 0L0 120Z" fill="white"/>
</mask>
<g mask="url(#mask0_1_2)">
<path d="M90 74.883H120V44.8828H90V74.883Z" fill="#1c3a42"/>
<path d="M90 30H120V0L90 2.62268e-06V30Z" fill="#1c3a42"/>
<path d="M45 120H75V90H45V120Z" fill="#1c3a42"/>
<path d="M90 120H120V90H90V120Z" fill="#1c3a42"/>
<path d="M2.62268e-06 120H30V90H0L2.62268e-06 120Z" fill="#1c3a42"/>
<path d="M45 74.883H75V44.8828H45V74.883Z" fill="#1c3a42"/>
</g>
<path d="M203.23 121.65C195.86 121.65 189.26 119.835 183.43 116.205C177.6 112.575 172.98 107.625 169.57 101.355C166.27 95.085 164.62 88.045 164.62 80.235C164.62 72.315 166.27 65.22 169.57 58.95C172.98 52.68 177.545 47.73 183.265 44.1C189.095 40.47 195.75 38.655 203.23 38.655C208.95 38.655 214.065 39.81 218.575 42.12C223.195 44.43 226.88 47.675 229.63 51.855C232.49 55.925 234.03 60.545 234.25 65.715V94.095C234.03 99.265 232.545 103.94 229.795 108.12C227.045 112.3 223.36 115.6 218.74 118.02C214.12 120.44 208.95 121.65 203.23 121.65ZM206.86 101.685C210.93 101.685 214.45 100.805 217.42 99.045C220.5 97.175 222.865 94.645 224.515 91.455C226.275 88.155 227.155 84.36 227.155 80.07C227.155 75.89 226.275 72.205 224.515 69.015C222.865 65.715 220.5 63.185 217.42 61.425C214.45 59.555 210.985 58.62 207.025 58.62C202.955 58.62 199.38 59.555 196.3 61.425C193.33 63.295 190.965 65.825 189.205 69.015C187.555 72.205 186.73 75.89 186.73 80.07C186.73 84.36 187.555 88.155 189.205 91.455C190.965 94.645 193.385 97.175 196.465 99.045C199.545 100.805 203.01 101.685 206.86 101.685ZM247.45 120H226V98.55L229.465 79.08L225.835 59.94V0.704987H247.45V120ZM269.872 120V40.305H291.652V120H269.872ZM280.762 27.435C277.242 27.435 274.327 26.28 272.017 23.97C269.707 21.55 268.552 18.58 268.552 15.06C268.552 11.65 269.707 8.735 272.017 6.315C274.327 3.89499 277.242 2.68499 280.762 2.68499C284.392 2.68499 287.307 3.89499 289.507 6.315C291.817 8.735 292.972 11.65 292.972 15.06C292.972 18.58 291.817 21.55 289.507 23.97C287.307 26.28 284.392 27.435 280.762 27.435ZM364.92 120L334.064 78.915L364.754 40.305H389.669L353.699 83.865L354.524 73.305L391.319 120H364.92ZM314.099 120V0.704987H335.714V120H314.099ZM434.197 121.65C426.937 121.65 420.391 119.835 414.561 116.205C408.731 112.575 404.167 107.625 400.867 101.355C397.567 95.085 395.916 88.045 395.916 80.235C395.916 72.315 397.567 65.22 400.867 58.95C404.167 52.68 408.731 47.73 414.561 44.1C420.391 40.47 426.937 38.655 434.197 38.655C439.917 38.655 445.032 39.81 449.542 42.12C454.052 44.43 457.626 47.675 460.266 51.855C463.016 55.925 464.501 60.545 464.721 65.715V94.425C464.501 99.705 463.016 104.38 460.266 108.45C457.626 112.52 454.052 115.765 449.542 118.185C445.032 120.495 439.917 121.65 434.197 121.65ZM438.157 101.685C444.207 101.685 449.101 99.705 452.841 95.745C456.581 91.675 458.451 86.45 458.451 80.07C458.451 75.89 457.571 72.205 455.811 69.015C454.161 65.715 451.797 63.185 448.717 61.425C445.747 59.555 442.227 58.62 438.157 58.62C434.197 58.62 430.677 59.555 427.597 61.425C424.627 63.185 422.262 65.715 420.502 69.015C418.852 72.205 418.027 75.89 418.027 80.07C418.027 84.36 418.852 88.155 420.502 91.455C422.262 94.645 424.627 97.175 427.597 99.045C430.677 100.805 434.197 101.685 438.157 101.685ZM457.296 120V98.55L460.761 79.08L457.296 59.94V40.305H478.746V120H457.296ZM501.17 120V40.305H522.95V120H501.17ZM512.06 27.435C508.54 27.435 505.625 26.28 503.315 23.97C501.005 21.55 499.848 18.58 499.848 15.06C499.848 11.65 501.005 8.735 503.315 6.315C505.625 3.89499 508.54 2.68499 512.06 2.68499C515.69 2.68499 518.605 3.89499 520.805 6.315C523.115 8.735 524.27 11.65 524.27 15.06C524.27 18.58 523.115 21.55 520.805 23.97C518.605 26.28 515.69 27.435 512.06 27.435ZM582.85 121.65C574.82 121.65 567.56 119.835 561.07 116.205C554.69 112.465 549.575 107.46 545.725 101.19C541.985 94.81 540.115 87.715 540.115 79.905C540.115 72.095 541.985 65.11 545.725 58.95C549.465 52.68 554.58 47.73 561.07 44.1C567.56 40.36 574.765 38.49 582.685 38.49C590.825 38.49 598.085 40.36 604.465 44.1C610.955 47.73 616.07 52.68 619.81 58.95C623.55 65.11 625.42 72.095 625.42 79.905C625.42 87.715 623.55 94.81 619.81 101.19C616.07 107.46 610.955 112.465 604.465 116.205C598.085 119.835 590.88 121.65 582.85 121.65ZM582.685 101.52C586.755 101.52 590.33 100.64 593.41 98.88C596.6 97.01 599.02 94.48 600.67 91.29C602.43 87.99 603.31 84.25 603.31 80.07C603.31 75.89 602.43 72.205 600.67 69.015C598.91 65.825 596.49 63.35 593.41 61.59C590.33 59.72 586.755 58.785 582.685 58.785C578.725 58.785 575.205 59.72 572.125 61.59C569.045 63.35 566.625 65.825 564.865 69.015C563.105 72.205 562.225 75.89 562.225 80.07C562.225 84.25 563.105 87.99 564.865 91.29C566.625 94.48 569.045 97.01 572.125 98.88C575.205 100.64 578.725 101.52 582.685 101.52Z" fill="#1c3a42"/>
<path d="M655.07 121.65C651.11 121.65 647.865 120.33 645.335 117.69C642.805 115.05 641.54 111.805 641.54 107.955C641.54 104.105 642.805 100.86 645.335 98.22C647.865 95.58 651.11 94.26 655.07 94.26C658.92 94.26 662.11 95.58 664.64 98.22C667.17 100.86 668.435 104.105 668.435 107.955C668.435 111.805 667.17 115.05 664.64 117.69C662.11 120.33 658.92 121.65 655.07 121.65ZM723.095 121.65C715.835 121.65 709.29 119.835 703.46 116.205C697.63 112.575 693.065 107.625 689.765 101.355C686.465 95.085 684.815 88.045 684.815 80.235C684.815 72.315 686.465 65.22 689.765 58.95C693.065 52.68 697.63 47.73 703.46 44.1C709.29 40.47 715.835 38.655 723.095 38.655C728.815 38.655 733.93 39.81 738.44 42.12C742.95 44.43 746.525 47.675 749.165 51.855C751.915 55.925 753.4 60.545 753.62 65.715V94.425C753.4 99.705 751.915 104.38 749.165 108.45C746.525 112.52 742.95 115.765 738.44 118.185C733.93 120.495 728.815 121.65 723.095 121.65ZM727.055 101.685C733.105 101.685 738 99.705 741.74 95.745C745.48 91.675 747.35 86.45 747.35 80.07C747.35 75.89 746.47 72.205 744.71 69.015C743.06 65.715 740.695 63.185 737.615 61.425C734.645 59.555 731.125 58.62 727.055 58.62C723.095 58.62 719.575 59.555 716.495 61.425C713.525 63.185 711.16 65.715 709.4 69.015C707.75 72.205 706.925 75.89 706.925 80.07C706.925 84.36 707.75 88.155 709.4 91.455C711.16 94.645 713.525 97.175 716.495 99.045C719.575 100.805 723.095 101.685 727.055 101.685ZM746.195 120V98.55L749.66 79.08L746.195 59.94V40.305H767.645V120H746.195ZM790.065 120V40.305H811.845V120H790.065ZM800.955 27.435C797.435 27.435 794.52 26.28 792.21 23.97C789.9 21.55 788.745 18.58 788.745 15.06C788.745 11.65 789.9 8.735 792.21 6.315C794.52 3.895 797.435 2.685 800.955 2.685C804.585 2.685 807.5 3.895 809.7 6.315C812.01 8.735 813.165 11.65 813.165 15.06C813.165 18.58 812.01 21.55 809.7 23.97C807.5 26.28 804.585 27.435 800.955 27.435Z" fill="#25DE9E"/>
</svg>
